<svg xmlns="http://www.w3.org/2000/svg" width="582" height="94.2" fill="#F9FaFC">
  <path d="M549 17.5h33V1.2h-82.1v16.3h33v75.3H549zM470 55.2V38.9h-41.1V17.5h53.9V1.2h-70v91.6h70V76.5h-53.9V55.2zM285 55.2V38.9h-41.1V17.5h53.9V1.2h-70v91.6h70V76.5h-53.9V55.2zM95.6 1.2h15.9v91.5H95.6zM177.7 17.5h33V1.2h-82.1v16.3h33v75.3h16.1zM61.1 22.8l9.3-13.3S58.2 0 39.4 0C17.1 0 2.2 12.1 2.2 27.4c0 33.6 54.4 23.5 54.4 40.1 0 6.3-5.6 10.6-18.8 10.6-16.4 0-28.9-11.5-28.9-11.5L0 79.6s13.3 14.6 38.3 14.6c22 0 35.9-12.6 35.9-27.3 0-32.7-54.4-23-54.4-40.3 0-6.3 7-10.6 18.1-10.6 12.8.1 23.2 6.8 23.2 6.8zM387.3 1.2h-61.4v16.3h45.2v39.7c0 12.8-5.4 20.9-22.1 20.9-13.6 0-25.3-11.5-25.3-11.5l-8.9 13s14.3 14.6 35.5 14.6c23.3 0 36.8-13.1 36.8-34.8z"/>
</svg>